<svg xmlns="http://www.w3.org/2000/svg" xmlns:xlink="http://www.w3.org/1999/xlink" viewBox="0,0,256,256" width="32px" height="32px" fill-rule="nonzero"><g fill-opacity="0" fill="#dddddd" fill-rule="nonzero" stroke="none" stroke-width="1" stroke-linecap="butt" stroke-linejoin="miter" stroke-miterlimit="10" stroke-dasharray="" stroke-dashoffset="0" font-family="none" font-weight="none" font-size="none" text-anchor="none" style="mix-blend-mode: normal"><path d="M0,256v-256h256v256z" id="bgRectangle"></path></g><g fill="#3c53f4" fill-rule="nonzero" stroke="none" stroke-width="1" stroke-linecap="butt" stroke-linejoin="miter" stroke-miterlimit="10" stroke-dasharray="" stroke-dashoffset="0" font-family="none" font-weight="none" font-size="none" text-anchor="none" style="mix-blend-mode: normal"><g transform="translate(131.83391,-53.09995) rotate(45) scale(5.12,5.12)"><path d="M43.81641,1c-0.606,0.01 -14.91648,0.32737 -20.89648,9.10938l-10.5293,18.76953c-0.775,1.371 -0.3482,3.11761 0.9668,3.97461l13.02344,8.64258c0.511,0.337 1.09769,0.49805 1.67969,0.49805c0.896,0 1.784,-0.38338 2.375,-1.10937l13.66016,-16.70117c0.019,-0.022 0.03674,-0.04436 0.05273,-0.06836c2.192,-3.214 2.86656,-7.03823 2.85156,-10.61523c-0.026,-6.121 -2.09733,-11.51519 -2.23633,-11.86719c-0.153,-0.386 -0.54927,-0.59681 -0.94727,-0.63281zM33.49219,12c1.05932,-0.00225 2.1308,0.29992 3.07617,0.93555c2.521,1.695 3.19109,5.11181 1.49609,7.63281c-1.695,2.521 -5.11181,3.19109 -7.63281,1.49609c-2.521,-1.695 -3.19109,-5.11181 -1.49609,-7.63281c1.05937,-1.57563 2.79111,-2.42789 4.55664,-2.43164zM15.64063,19.00977c-5.19,0.13 -9.27141,2.22086 -12.44141,6.38086c-0.23,0.31 -0.25961,0.70883 -0.09961,1.04883c0.17,0.34 0.52039,0.56055 0.90039,0.56055h1.75c1.4,0 3.20953,0.13969 5.01953,0.67969zM38.17969,34.53906c-3.36,4.09 -6.60031,8.03023 -6.82031,8.24023c1.36,1.97 2.12086,4.01062 2.63086,5.39063l0.07031,0.17969c0.13,0.34 0.42906,0.59062 0.78906,0.64063c0.05,0.01 0.10039,0.00977 0.15039,0.00977c0.31,0 0.61078,-0.14062 0.80078,-0.39062c2.24,-2.96 3.19922,-5.82937 3.19922,-9.60937c0,-1.65 -0.35031,-3.16094 -0.82031,-4.46094zM13.42383,35.29297c-2.15,3.54 -3.8102,10.95323 -0.6582,13.11523c0.576,0.394 1.26088,0.59375 2.04688,0.59375c0.339,0 0.69727,-0.03833 1.07227,-0.11133c3.081,-0.605 6.90783,-3.64822 8.67383,-6.19922l-2.07422,-1.37891c-1.939,1.873 -4.88009,3.46873 -6.62109,2.30273c-1.741,-1.174 -1.42436,-4.49409 -0.44336,-6.99609z"></path></g></g></svg>