<svg width="140" height="140" viewBox="0 0 140 140" fill="none" xmlns="http://www.w3.org/2000/svg">
<path d="M70 0C81.9602 1.42624e-07 93.7209 3.06448 104.16 8.90112C114.6 14.7377 123.369 23.1518 129.633 33.3408C135.897 43.5297 139.445 55.1535 139.94 67.1035C140.435 79.0534 137.86 90.9309 132.46 101.603C127.06 112.275 119.016 121.385 109.095 128.065C99.1744 134.745 87.7073 138.771 75.7881 139.76C63.8688 140.749 51.895 138.668 41.0088 133.714C30.1225 128.761 20.6871 121.101 13.6024 111.465L70 70V0Z" fill="#F7C871"/>
<path d="M20.5025 119.497C14.0024 112.997 8.84626 105.281 5.32843 96.7878C1.8106 88.295 -8.03636e-07 79.1925 0 70C8.03637e-07 60.8075 1.81061 51.7049 5.32844 43.2122C8.84627 34.7194 14.0024 27.0026 20.5025 20.5025L70 70L20.5025 119.497Z" fill="#EB973E"/>
<path d="M20.5025 20.5025C32.4164 8.58861 48.2278 1.37162 65.0342 0.176361L70 70L20.5025 20.5025Z" fill="#75CD72"/>
<path d="M59.4407 0.801C73.0565 -1.27667 86.9826 0.708604 99.4753 6.50823C111.968 12.3079 122.472 21.6641 129.673 33.4054L70 70L59.4407 0.801Z" fill="#71CAFA"/>
</svg>
