<svg xmlns="http://www.w3.org/2000/svg" xmlns:xlink="http://www.w3.org/1999/xlink" viewBox="0,0,256,256" width="48px" height="48px" fill-rule="nonzero"><g fill-opacity="0" fill="#dddddd" fill-rule="nonzero" stroke="none" stroke-width="1" stroke-linecap="butt" stroke-linejoin="miter" stroke-miterlimit="10" stroke-dasharray="" stroke-dashoffset="0" font-family="none" font-weight="none" font-size="none" text-anchor="none" style="mix-blend-mode: normal"><path d="M0,256v-256h256v256z" id="bgRectangle"></path></g><g fill="none" fill-rule="nonzero" stroke="none" stroke-width="1" stroke-linecap="butt" stroke-linejoin="miter" stroke-miterlimit="10" stroke-dasharray="" stroke-dashoffset="0" font-family="none" font-weight="none" font-size="none" text-anchor="none" style="mix-blend-mode: normal"><g transform="scale(5.33333,5.33333)"><path d="M24,44l-22,-21.5l8,-17.5h28l8,17.5z" fill="#4db6ac"></path><path d="M38,22c0,-1.436 -4.711,-2.635 -11,-2.929v-3.071h8v-6h-22v6h8v3.071c-6.289,0.294 -11,1.493 -11,2.929c0,1.436 4.711,2.635 11,2.929v11.071h6v-11.071c6.289,-0.294 11,-1.493 11,-2.929zM24,24c-6.627,0 -12,-1.007 -12,-2.25c0,-1.048 3.827,-1.926 9,-2.176v3.346c0.96,0.06 1.96,0.08 3,0.08c1.04,0 2.04,-0.02 3,-0.08v-3.346c5.173,0.25 9,1.128 9,2.176c0,1.243 -5.373,2.25 -12,2.25z" fill="#ffffff"></path></g></g></svg>